<svg viewBox="0 0 96 96" xmlns="http://www.w3.org/2000/svg" xmlns:xlink="http://www.w3.org/1999/xlink" id="Icons_Train" overflow="hidden"><path d="M26.2 84 28 80 68 80 69.8 84 26.2 84ZM31.7 72 64.4 72 66.2 76 29.9 76 31.7 72ZM30 55C30 53.3 31.3 52 33 52 34.7 52 36 53.3 36 55 36 56.7 34.7 58 33 58 31.3 58 30 56.7 30 55ZM30 14C30 11.8 31.8 10 34 10L42 10C42 8.9 42.9 8 44 8L52 8C53.1 8 54 8.9 54 10L62 10C64.2 10 66 11.8 66 14L66 34C66 35.1 65.1 36 64 36L32 36C30.9 36 30 35.1 30 34L30 14ZM62.5 68 33.5 68 35.3 64 60.7 64 62.5 68ZM63 58C61.3 58 60 56.7 60 55 60 53.3 61.3 52 63 52 64.7 52 66 53.3 66 55 66 56.7 64.7 58 63 58ZM65.1 64 66 64C69.3 64 72 61.3 72 58L72 12C72 7.6 68.4 4 64 4L32 4C27.6 4 24 7.6 24 12L24 58C24 61.3 26.7 64 30 64L30.9 64 18.2 92 22.6 92 24.4 88 71.5 88 73.3 92 77.7 92 65.1 64Z" stroke-width="1.37143" fill="#686C78"/></svg>