<svg viewBox="0 0 96 96" xmlns="http://www.w3.org/2000/svg" xmlns:xlink="http://www.w3.org/1999/xlink" id="Icons_ElectricCar" overflow="hidden"><circle cx="34.5" cy="66" r="6.5" fill="#686C78"/><circle cx="74.5" cy="66" r="6.5" fill="#686C78"/><path d="M83.09 49 76.09 49C75.1994 49.0198 74.3433 48.6555 73.74 48L63.16 37.43C61.9378 36.0308 60.2209 35.1598 58.37 35L33.73 35C31.8839 35.1767 30.1729 36.0447 28.94 37.43L18.51 48C17.8606 48.6407 17.4996 49.5178 17.51 50.43L17.51 56 12.51 56C11.6816 56.0055 11.0056 55.3384 11 54.51 11 54.5067 11 54.5033 11 54.5L11 37.19C13.4334 36.3301 15.0442 34.0105 15 31.43L15 28 13 28 13 24C13 23.4477 12.5523 23 12 23 11.4477 23 11 23.4477 11 24L11 28 8 28 8 24C8 23.4477 7.55228 23 7 23 6.44772 23 6 23.4477 6 24L6 28 4 28 4 31.43C3.95577 34.0105 5.56663 36.3301 8 37.19L8 54.5C8.0055 56.983 10.017 58.9945 12.5 59L17.5 59 17.5 59C17.511 62.7107 20.5193 65.7145 24.23 65.72L25.07 65.72C25.0534 60.628 29.1679 56.4866 34.2599 56.47 34.2799 56.4699 34.3 56.4699 34.32 56.47 39.4991 56.5631 43.6313 60.8204 43.57 66L65.43 66C65.3963 60.8398 69.5206 56.613 74.68 56.52 79.772 56.5034 83.9134 60.6179 83.93 65.7099 83.9301 65.7299 83.9301 65.75 83.93 65.77L88.14 65.77C89.9934 65.7645 91.4945 64.2634 91.5 62.41L91.5 57.41C91.5111 52.7763 87.7637 49.0111 83.1301 49 83.1167 49 83.1034 49 83.09 49ZM44 49 22.29 49 31.38 39.87C32.1139 39.2627 33.0486 38.9523 34 39L44 39ZM47 49 47 39 58.45 39C59.3261 38.9303 60.1888 39.2483 60.81 39.87L69.89 49Z" fill="#686C78"/></svg>